<mxfile host="app.diagrams.net" modified="2023-04-25T13:33:14.201Z" agent="Mozilla/5.0 (Windows NT 10.0; Win64; x64) AppleWebKit/537.36 (KHTML, like Gecko) Chrome/112.0.0.0 Safari/537.36" version="21.2.1" etag="pYhqukv-0i9VX5ZQ-1ju" type="github">
  <diagram name="PÃ¡gina-1" id="nLd5o8f9sPJVaRZxiVS5">
    <mxGraphModel>
      <root>
        <mxCell id="0" />
        <mxCell id="1" parent="0" />
      </root>
    </mxGraphModel>
  </diagram>
</mxfile>
